<svg width="26" height="18" viewBox="0 0 26 18" fill="none" xmlns="http://www.w3.org/2000/svg">
<rect y="16" width="25.2679" height="2" fill="black"/>
<rect y="18" width="7" height="2.52679" transform="rotate(-90 0 18)" fill="black"/>
<rect x="22.7412" y="18" width="7" height="2.52679" transform="rotate(-90 22.7412 18)" fill="black"/>
<path d="M11.9267 12.7071C12.3172 13.0976 12.9504 13.0976 13.3409 12.7071L19.7049 6.34315C20.0954 5.95262 20.0954 5.31946 19.7049 4.92893C19.3143 4.53841 18.6812 4.53841 18.2906 4.92893L12.6338 10.5858L6.97694 4.92893C6.58641 4.53841 5.95325 4.53841 5.56272 4.92893C5.1722 5.31946 5.1722 5.95262 5.56272 6.34315L11.9267 12.7071ZM11.6338 3.45984e-08L11.6338 12L13.6338 12L13.6338 -3.45984e-08L11.6338 3.45984e-08Z" fill="black"/>
</svg>
