<svg width="145" height="50" viewBox="0 0 145 50" fill="none" xmlns="http://www.w3.org/2000/svg">
<path d="M1.9218 1.10594L19.4102 2.67753L38.1478 0L53.8105 1.92084H72.3559L91.7661 2.67753L104.738 0.582072L121.5 0L142.213 2.67753L145 13.8533L143.655 19.674L145 25.9022L142.213 37.5437L145 45.6927L143.559 49.4179L125.974 48.7194L109.062 50H89.8443L73.8933 48.7194L56.4049 49.4179L38.1478 48.1374L19.4102 50L1.9218 49.4179L1.4894 43.4808L2.97879 37.5437L1.4894 25.0873L2.97879 18.8591L1.05699 13.0384L0 7.21769L1.9218 1.10594Z" fill="white"/>
</svg>
